<mxfile host="app.diagrams.net" modified="2024-06-27T14:02:51.609Z" agent="Mozilla/5.0 (Windows NT 10.0; Win64; x64) AppleWebKit/537.36 (KHTML, like Gecko) Chrome/126.0.0.0 Safari/537.36" version="24.6.0" etag="RDGpeUqzKmjuJ1OZ1dVS" type="github">
  <diagram name="Page-1" id="g4yiLK9mWK4lhAy46Ku3">
    <mxGraphModel>
      <root>
        <mxCell id="0" />
        <mxCell id="1" parent="0" />
      </root>
    </mxGraphModel>
  </diagram>
</mxfile>
